# xmcd CD database file
# Copyright (C) 1997 Ti Kan
#
# Track frame offsets:
#  150
#  17705
#  31655
#  59607
#  77932
#  95437
#  110652
#  127450
#  152335
#  169257
#  188395
#  202712
#
# Disc length: 2778 seconds
#
# Revision: 1
# Processed by: cddbd v1.4b41PL1 Copyright (c) Steve Scherf et al.
# Submitted via: CDWizzard Release:4.32
#
DISCID=950ad80c
DTITLE=Gotthard - Gotthard
DYEAR=1900
DGENRE=
TTITLE0=Standing In The Light
TTITLE1=Downtown
TTITLE2=Firedance
TTITLE3=Hush
TTITLE4=Mean Street Rocket
TTITLE5=Get Down
TTITLE6=Take Me
TTITLE7=Angel
TTITLE8=Lonely Heartache
TTITLE9=Hunter
TTITLE10=All I Care For
TTITLE11="That's It"
EXTD=
EXTT0=
EXTT1=
EXTT2=
EXTT3=
EXTT4=
EXTT5=
EXTT6=
EXTT7=
EXTT8=
EXTT9=
EXTT10=
EXTT11=
PLAYORDER=
